# xmcd CD database file
#
# Track frame offsets:
#	150
#	17995
#	33528
#	53695
#	66783
#	96500
#	113163
#	131355
#	143525
#	162640
#	182135
#	216385
#
# Disc length: 2931 seconds
#
# Revision: 1
# Processed by: cddbd v1.5PL3 Copyright (c) Steve Scherf et al.
# Submitted via: CDex 1.50beta8
#
DISCID=b00b710c
DTITLE=はっぴいえんど - Live On Stage
DYEAR=1989
DGENRE=Folk-Rock
TTITLE0=12月の雨の日
TTITLE1=春らんまん
TTITLE2=空いろのくれよん
TTITLE3=ももんが（暗闇坂むささび変化）
TTITLE4=かくれんぼ
TTITLE5=いらいら
TTITLE6=しんしんしん
TTITLE7=抱きしめたい
TTITLE8=朝
TTITLE9=はいからはくち
TTITLE10=春よこい（アンコール）
TTITLE11=DataTrack
EXTD=YEAR: 1989
EXTT0=
EXTT1=
EXTT2=
EXTT3=
EXTT4=
EXTT5=
EXTT6=
EXTT7=
EXTT8=
EXTT9=
EXTT10=
EXTT11=
PLAYORDER=
